<?xml version="1.0" standalone="no"?>
<!DOCTYPE svg PUBLIC "-//W3C//DTD SVG 20010904//EN"
 "http://www.w3.org/TR/2001/REC-SVG-20010904/DTD/svg10.dtd">
<svg version="1.0" xmlns="http://www.w3.org/2000/svg"
 width="329.000000pt" height="329.000000pt" viewBox="0 0 329.000000 329.000000"
 preserveAspectRatio="xMidYMid meet">
<metadata>
Created by potrace 1.14, written by Peter Selinger 2001-2017
</metadata>
<g transform="translate(0.000000,329.000000) scale(0.100000,-0.100000)"
fill="#000000" stroke="none">
<path d="M354 2756 c-19 -14 -19 -33 -16 -933 3 -678 7 -925 15 -943 9 -19 21
-26 48 -28 31 -3 53 7 136 61 l99 64 30 -24 c16 -13 73 -53 127 -89 135 -90
184 -106 517 -168 128 -23 159 -28 255 -42 22 -3 65 -9 95 -14 30 -5 75 -11
100 -14 25 -4 56 -8 69 -11 21 -4 134 -21 206 -30 11 -2 38 -6 60 -9 52 -9
217 -33 275 -41 25 -3 52 -8 60 -10 8 -3 203 -7 433 -10 l417 -5 -6 28 c-3 15
-10 45 -16 66 -5 22 -52 104 -104 183 -73 112 -99 143 -116 144 -13 0 -41 2
-63 3 -22 2 -121 7 -220 11 -99 4 -196 9 -215 10 -19 2 -52 3 -73 4 -28 1 -36
4 -30 14 11 18 13 34 14 108 0 82 -30 165 -78 216 -19 21 -30 39 -24 41 6 2
11 16 11 30 0 20 -10 33 -35 50 -19 12 -41 22 -49 22 -7 0 -19 6 -25 14 -12
14 -52 217 -45 225 3 4 27 7 68 10 19 1 19 2 -2 24 -11 12 -26 35 -32 51 -9
24 -7 31 10 46 15 13 31 17 54 13 43 -7 64 17 48 52 -15 32 -39 32 -72 0 -25
-24 -27 -24 -74 -10 -29 9 -90 15 -148 15 -67 0 -98 4 -98 11 0 7 -13 25 -30
40 l-29 28 39 11 c30 8 49 23 80 64 22 29 40 61 40 70 0 55 -70 117 -124 109
-50 -7 -53 -9 -89 -66 -20 -30 -41 -58 -48 -62 -6 -5 -41 -7 -75 -6 -57 2 -69
-1 -109 -29 -40 -28 -50 -30 -97 -25 -44 5 -61 2 -103 -19 -27 -14 -66 -32
-85 -39 -33 -13 -36 -19 -59 -103 -13 -49 -34 -123 -47 -164 -13 -41 -24 -76
-24 -77 0 -1 12 -4 28 -8 15 -4 37 -20 50 -36 l24 -29 -46 -45 c-25 -24 -46
-49 -46 -54 0 -6 -16 -26 -35 -45 -36 -36 -39 -50 -36 -144 1 -36 -1 -42 -19
-42 -14 0 -26 -11 -35 -33 -13 -30 -12 -33 12 -54 25 -22 25 -24 9 -48 -21
-32 -72 -34 -151 -4 -58 21 -68 33 -36 42 29 7 53 50 45 81 -9 36 -50 75 -73
69 -11 -3 -29 -16 -42 -29 -12 -13 -26 -24 -30 -24 -3 0 -25 25 -48 55 -34 45
-39 56 -26 61 20 8 45 56 45 86 0 34 -26 65 -60 73 l-30 7 -1 556 0 557 -52
35 c-169 112 -246 140 -293 106z"/>
</g>
</svg>
